<svg id="Component_10_1" data-name="Component 10 – 1" xmlns="http://www.w3.org/2000/svg" width="66" height="66" viewBox="0 0 66 66">
  <rect id="Rectangle_34" data-name="Rectangle 34" width="66" height="66" fill="#555"/>
  <path id="Icon_ionic-ios-musical-notes" data-name="Icon ionic-ios-musical-notes" d="M36.562,3.394c-.452.086-19.407,3.766-19.811,3.843a.852.852,0,0,0-.778.769V31.073a2.65,2.65,0,0,1-.231,1.124,2.56,2.56,0,0,1-1.547,1.22c-.317.106-.749.2-1.259.317-2.315.519-6.187,1.4-6.187,4.977a4.4,4.4,0,0,0,4.006,4.564,4.684,4.684,0,0,0,.682.067h0a11.859,11.859,0,0,0,4.919-1.268,5.176,5.176,0,0,0,2.315-4.592V17.066a.762.762,0,0,1,.615-.749l14.6-2.949a.768.768,0,0,1,.922.749V26.692a2.754,2.754,0,0,1-.24,1.287,2.553,2.553,0,0,1-1.556,1.22c-.317.106-.845.2-1.355.317-2.315.519-6.187,1.393-6.187,4.967a4.406,4.406,0,0,0,4.016,4.64,7.94,7.94,0,0,0,1.864-.086,11.015,11.015,0,0,0,3.507-1.249A5.064,5.064,0,0,0,37.5,33.158V4.134A.761.761,0,0,0,36.562,3.394Z" transform="translate(7.996 9.641)" fill="#212124"/>
</svg>
