<svg xmlns="http://www.w3.org/2000/svg" width="22.79" height="22.79" viewBox="0 0 22.79 22.79">
  <path id="Icon_awesome-pause" data-name="Icon awesome-pause" d="M7.325,24.969H2.442A2.442,2.442,0,0,1,0,22.528V4.621A2.442,2.442,0,0,1,2.442,2.18H7.325A2.442,2.442,0,0,1,9.767,4.621V22.528A2.442,2.442,0,0,1,7.325,24.969ZM22.79,22.528V4.621A2.442,2.442,0,0,0,20.348,2.18H15.464a2.442,2.442,0,0,0-2.442,2.442V22.528a2.442,2.442,0,0,0,2.442,2.442h4.883A2.442,2.442,0,0,0,22.79,22.528Z" transform="translate(0 -2.18)" fill="#f1f1f1"/>
</svg>
