<svg xmlns="http://www.w3.org/2000/svg" xmlns:xlink="http://www.w3.org/1999/xlink" width="19.939" height="22.79" viewBox="0 0 19.939 22.79">
  <defs>
    <filter id="Icon_awesome-play">
      <feOffset dy="3" input="SourceAlpha"/>
      <feGaussianBlur stdDeviation="3" result="blur"/>
      <feFlood flood-opacity="0.161" result="color"/>
      <feComposite operator="out" in="SourceGraphic" in2="blur"/>
      <feComposite operator="in" in="color"/>
      <feComposite operator="in" in2="SourceGraphic"/>
    </filter>
  </defs>
  <g data-type="innerShadowGroup">
    <path id="Icon_awesome-play-2" data-name="Icon awesome-play" d="M18.89,9.557,3.222.295A2.125,2.125,0,0,0,0,2.133v18.52a2.135,2.135,0,0,0,3.222,1.838L18.89,13.233a2.134,2.134,0,0,0,0-3.676Z" transform="translate(0 -0.002)" fill="#fff"/>
    <g transform="matrix(1, 0, 0, 1, 0, 0)" filter="url(#Icon_awesome-play)">
      <path id="Icon_awesome-play-3" data-name="Icon awesome-play" d="M18.89,9.557,3.222.295A2.125,2.125,0,0,0,0,2.133v18.52a2.135,2.135,0,0,0,3.222,1.838L18.89,13.233a2.134,2.134,0,0,0,0-3.676Z" transform="translate(0 0)" fill="#fff"/>
    </g>
  </g>
</svg>
