<?xml version="1.0" encoding="UTF-8"?>
<svg id="Layer_2" data-name="Layer 2" xmlns="http://www.w3.org/2000/svg" viewBox="0 0 2615 851.89">
  <defs>
    <style>
      .cls-1 {
        fill: #d83e03;
      }
    </style>
  </defs>
  <g id="Layer_1-2" data-name="Layer 1">
    <g>
      <path class="cls-1" d="m523.18,489.03c9.41-14.78,17.21-26.31,24.3-38.25,70.15-118.09,140.12-236.28,210.28-354.36,30.9-52,77.51-82.25,137.19-82.14,60.66.11,107.49,31.05,138.77,84.02,71.12,120.43,142.43,240.75,213.79,361.04,5.01,8.44,11.07,16.25,19.14,27.99,7.23-10.29,13.13-17.71,17.98-25.75,70.94-117.65,141.76-235.38,212.58-353.11,25.85-42.97,59.33-76.45,110.65-86.54,104.51-20.55,195.92,64.82,181.42,170.96-3.3,24.12-10.84,49.57-23.35,70.22-96.18,158.82-192.22,317.79-291.94,474.4-97.95,153.82-319.51,151.91-416.94-2.03-50.76-80.2-98.61-162.24-147.84-243.4-3.68-6.07-7.89-11.82-13.65-20.38-5.46,7.09-9.14,11.03-11.87,15.55-47.78,79.12-94.53,158.88-143.38,237.33-47.88,76.88-115.62,123.62-208.76,125.99-99.09,2.53-173.65-42.2-224.32-125.09C211.68,569.17,117.17,412.23,24.07,254.47c-60.19-102-1.99-222.01,113.44-234.38,62.26-6.68,112.45,18.47,145.65,72.88,60.72,99.51,121.01,199.28,181.44,298.97,18.89,31.17,37.66,62.41,58.57,97.08Z"/>
      <path class="cls-1" d="m2088.46,485.7c37.31-60.84,72.31-117.33,106.73-174.18,44.84-74.07,87.71-149.38,134.19-222.39,58.81-92.38,181.62-98.6,250.5-14.63,41.4,50.47,46.96,115.5,12.69,172.23-97.26,161.03-194.14,322.3-293.14,482.25-96.97,156.65-317.82,160.91-418.43,7.05-67.4-103.07-129.3-209.76-193.06-315.19-34.47-56.98-68.9-114.04-101.21-172.26-56.53-101.84-1.88-214.2,113.51-231.74,56.95-8.66,107.03,9.64,138.29,60.07,73.26,118.17,144.3,237.71,216.39,356.61,9.88,16.3,20.6,32.09,33.55,52.17Z"/>
      <path class="cls-1" d="m1670.38,365.78c-27.68,45.57-53.53,88.16-79.41,130.73-51.46,84.66-102.39,169.65-154.6,253.84-31.7,51.11-75.57,83.22-139.02,82.68-103.35-.88-176.01-102.84-141.73-200.7,6.28-17.91,15.18-35.23,25.02-51.52,93.01-153.93,185.64-308.1,280.08-461.15,94.3-152.83,310.33-161.43,411.83-13.26,69.54,101.52,129.55,209.57,193.54,314.87,33.72,55.5,67.02,111.26,100.16,167.11,24.01,40.46,39.26,82.77,24.97,130.7-19.06,63.9-62.36,102.56-127.19,112.28-63.16,9.47-115.56-14.37-149.87-68.96-48.3-76.82-94.17-155.15-141.2-232.77-30.2-49.84-60.57-99.59-90.99-149.3-2.53-4.13-6.05-7.66-11.59-14.55Z"/>
    </g>
    <circle class="cls-1" cx="1671.5" cy="738.85" r="95"/>
  </g>
</svg>